<svg width="21" height="21" viewBox="0 0 21 21" fill="none" xmlns="http://www.w3.org/2000/svg">
<path d="M6.78125 5.08268C6.78125 3.12667 8.44619 1.54102 10.5 1.54102C12.5538 1.54102 14.2188 3.12667 14.2188 5.08268V5.91602C14.2188 7.87202 12.5538 9.45768 10.5 9.45768C8.44619 9.45768 6.78125 7.87202 6.78125 5.91602V5.08268Z" fill="white"/>
<path fill-rule="evenodd" clip-rule="evenodd" d="M8.09375 10.709H8.74999C8.92404 10.709 9.09099 10.7748 9.21401 10.8921L10.5 12.1167L11.786 10.8921C11.909 10.7748 12.076 10.709 12.25 10.709H13.3438V15.4596C12.9514 15.6757 12.6875 16.0797 12.6875 16.5423C12.6875 17.2327 13.2752 17.7923 14 17.7923C14.7248 17.7923 15.3125 17.2327 15.3125 16.5423C15.3125 16.0797 15.0486 15.6757 14.6562 15.4596V10.709H15.75C17.0789 10.7091 18.1562 11.7351 18.1562 13.0007V18.834C18.1562 19.1792 17.8624 19.459 17.5 19.459H3.5C3.13757 19.459 2.84375 19.1792 2.84375 18.834V13.0007C2.84375 11.7351 3.92105 10.7091 5.24997 10.709H6.78125V14.1286C5.77128 14.4007 5.03125 15.285 5.03125 16.334V17.1673C5.03125 17.5125 5.32507 17.7923 5.6875 17.7923C6.04993 17.7923 6.34375 17.5125 6.34375 17.1673V16.334C6.34375 15.7587 6.83344 15.2923 7.4375 15.2923C8.04156 15.2923 8.53125 15.7587 8.53125 16.334V17.1673C8.53125 17.5125 8.82508 17.7923 9.1875 17.7923C9.54992 17.7923 9.84375 17.5125 9.84375 17.1673V16.334C9.84375 15.285 9.10376 14.4007 8.09375 14.1286V10.709Z" fill="white"/>
</svg>
