<svg width="98" height="99" viewBox="0 0 98 99" fill="none" xmlns="http://www.w3.org/2000/svg">
<ellipse cx="49" cy="49.5" rx="49" ry="49.5" fill="#FFE6A5"/>
<path d="M67.3111 61.2881C62.8569 59.1011 58.2452 60.4308 56.4513 61.1132L55.0075 58.445C54.0536 56.8703 54.0973 54.9457 55.1387 52.7325C55.6638 51.6127 56.4951 50.5191 57.6064 49.4956C58.3065 48.8395 59.0591 48.0347 59.8379 47.0899C62.3756 44.028 62.5681 39.8639 60.3192 36.7233C56.7838 31.8068 49.6432 28.7012 49.3456 28.57C49.2319 28.5262 49.1181 28.5 49.0044 28.5C48.9956 28.5 48.9956 28.5 48.9956 28.5C48.8819 28.5 48.7681 28.5262 48.6544 28.57C48.348 28.7012 41.2162 31.8068 37.6808 36.7233C35.4319 39.8639 35.6244 44.028 38.1534 47.0899C38.9322 48.0347 39.6848 48.8395 40.3936 49.4956C41.5049 50.5279 42.3362 51.6127 42.8613 52.7325C43.9027 54.9457 43.9464 56.8703 42.9663 58.48L41.5487 61.1132C39.7548 60.4308 35.1431 59.1011 30.6889 61.2881C28.6412 62.2854 27.5999 64.3588 28.1424 66.3359C28.615 68.068 30.1463 69.3714 32.7541 70.2288C32.8504 70.255 33.9005 70.5 35.6594 70.5C37.8471 70.5 41.1111 70.1238 44.9965 68.4966L48.9956 66.7208L53.021 68.5054C60.0129 71.4361 65.0359 70.2813 65.3159 70.2113C67.8536 69.3714 69.385 68.068 69.8576 66.3359C70.4001 64.3588 69.3588 62.2854 67.3111 61.2881ZM51.3409 45.7252L52.5835 44.4567C52.6097 44.4217 52.636 44.3954 52.6622 44.3604C54.1236 42.3396 54.5961 40.4325 54.0448 38.6829C53.406 36.6183 51.4283 35.2886 48.9956 35.2886C46.5717 35.2886 44.594 36.6183 43.9464 38.6829C43.4039 40.4325 43.8764 42.3396 45.3378 44.3604C45.364 44.3954 45.3903 44.4217 45.4165 44.4567L46.6504 45.7252C43.2901 45.6552 41.4962 42.6721 41.2162 42.1646C40.0698 37.9743 46.0379 32.5941 48.9956 30.4508C51.9621 32.6029 57.9302 37.9743 56.7838 42.1646C56.5038 42.6808 54.7274 45.6727 51.3409 45.7252Z" fill="#3A643C"/>
</svg>
