<svg width="98" height="99" viewBox="0 0 98 99" fill="none" xmlns="http://www.w3.org/2000/svg">
<ellipse cx="49" cy="49.5" rx="49" ry="49.5" fill="#FFE6A5"/>
<g clip-path="url(#clip0_60_36805)">
<path d="M44.4499 45C44.9888 43.3902 45.1345 41.6765 44.8749 40C43.0671 40.3614 41.3863 41.1859 40 42.3916C40.2465 43.2393 40.3686 44.1178 40.3625 45H44.4499Z" fill="#3A643C"/>
<path d="M31.6698 45H38.9988C39.0148 44.1793 38.8726 43.3617 38.5776 42.5779C37.1914 38.9605 32.4892 37 32.4892 37C32.4892 37 30.0386 40.8577 31.4247 44.4498C31.495 44.6365 31.5768 44.8202 31.6698 45Z" fill="#3A643C"/>
<path d="M62.5184 45L66.5659 40.3419C66.839 40.5819 67.2019 40.7134 67.5774 40.7084C67.953 40.7034 68.3117 40.5624 68.5773 40.3152C68.8429 40.068 68.9945 39.7342 68.9999 39.3847C69.0052 39.0351 68.8639 38.6974 68.606 38.4433L65.3261 35.3908C65.1936 35.2653 65.0352 35.166 64.8605 35.0989C64.6858 35.0318 64.4983 34.9982 64.3093 35.0001C64.1193 34.998 63.9308 35.0316 63.755 35.0987C63.5792 35.1658 63.4197 35.2651 63.2859 35.3908C63.1513 35.5151 63.0444 35.663 62.9714 35.8259C62.8985 35.9888 62.8609 36.1636 62.8609 36.3401C62.8609 36.5166 62.8985 36.6914 62.9714 36.8543C63.0444 37.0173 63.1513 37.1652 63.2859 37.2894L53 45H62.5184Z" fill="#3A643C"/>
<path d="M67.2303 46H28.7697C28.2786 46.0601 27.8292 46.2702 27.5041 46.5918C27.179 46.9135 27 47.325 27 47.7508C27 48.1766 27.179 48.5881 27.5041 48.9098C27.8292 49.2314 28.2786 49.4415 28.7697 49.5016H60.637C60.8192 49.5016 60.9939 49.5637 61.1227 49.6743C61.2515 49.7848 61.3238 49.9348 61.3238 50.0911C61.3238 50.2474 61.2515 50.3974 61.1227 50.5079C60.9939 50.6185 60.8192 50.6806 60.637 50.6806H29.2299C29.4843 53.6412 30.6833 56.4845 32.6955 58.8989C34.7077 61.3134 37.4554 63.2058 40.6376 64.3687V66.314C40.6376 66.7612 40.8445 67.19 41.2129 67.5062C41.5812 67.8224 42.0808 68 42.6018 68H53.3982C53.9192 68 54.4188 67.8224 54.7871 67.5062C55.1555 67.19 55.3624 66.7612 55.3624 66.314V65.5477H44.6965C44.5144 65.5477 44.3397 65.4856 44.2109 65.375C44.0821 65.2645 44.0097 65.1145 44.0097 64.9582C44.0097 64.8019 44.0821 64.6519 44.2109 64.5414C44.3397 64.4308 44.5144 64.3687 44.6965 64.3687H55.3624C58.7602 63.128 61.6578 61.0571 63.6947 58.4136C65.7316 55.7702 66.8179 52.6709 66.8182 49.5016H67.2303C67.7214 49.4415 68.1708 49.2314 68.4959 48.9098C68.821 48.5881 69 48.1766 69 47.7508C69 47.325 68.821 46.9135 68.4959 46.5918C68.1708 46.2702 67.7214 46.0601 67.2303 46Z" fill="#3A643C"/>
</g>
<defs>
<clipPath id="clip0_60_36805">
<rect width="48" height="48" fill="white" transform="translate(21 25.5)"/>
</clipPath>
</defs>
</svg>
