<svg width="98" height="99" viewBox="0 0 98 99" fill="none" xmlns="http://www.w3.org/2000/svg">
<ellipse cx="49" cy="49.5" rx="49" ry="49.5" fill="#FFE6A5"/>
<path d="M43 35C43 34.7348 42.8946 34.4804 42.7071 34.2929C42.5196 34.1054 42.2652 34 42 34C41.7348 34 41.4804 34.1054 41.2929 34.2929C41.1054 34.4804 41 34.7348 41 35V36H39C37.9391 36 36.9217 36.4214 36.1716 37.1716C35.4214 37.9217 35 38.9391 35 40V42H67V40C67 38.9391 66.5786 37.9217 65.8284 37.1716C65.0783 36.4214 64.0609 36 63 36H61V35C61 34.7348 60.8946 34.4804 60.7071 34.2929C60.5196 34.1054 60.2652 34 60 34C59.7348 34 59.4804 34.1054 59.2929 34.2929C59.1054 34.4804 59 34.7348 59 35V36H43V35ZM67 62V44H35V62C35 63.0609 35.4214 64.0783 36.1716 64.8284C36.9217 65.5786 37.9391 66 39 66H63C64.0609 66 65.0783 65.5786 65.8284 64.8284C66.5786 64.0783 67 63.0609 67 62ZM60 48H62C62.2652 48 62.5196 48.1054 62.7071 48.2929C62.8946 48.4804 63 48.7348 63 49V51C63 51.2652 62.8946 51.5196 62.7071 51.7071C62.5196 51.8946 62.2652 52 62 52H60C59.7348 52 59.4804 51.8946 59.2929 51.7071C59.1054 51.5196 59 51.2652 59 51V49C59 48.7348 59.1054 48.4804 59.2929 48.2929C59.4804 48.1054 59.7348 48 60 48Z" fill="#3A643C"/>
</svg>
